<?xml version="1.0" encoding="UTF-8"?>
<svg xmlns="http://www.w3.org/2000/svg" xmlns:xlink="http://www.w3.org/1999/xlink" width="24pt" height="24pt" viewBox="0 0 24 24" version="1.1">
<g id="surface1">
<path style=" stroke:none;fill-rule:nonzero;fill:#a6a6a6;fill-opacity:1;" d="M 23.523438 21.046875 L 18.664062 16.1875 C 18.246094 15.773438 17.667969 15.617188 17.132812 15.726562 L 16 14.597656 C 17.914062 12.042969 17.710938 8.398438 15.390625 6.078125 C 12.84375 3.53125 8.707031 3.53125 6.164062 6.078125 C 3.617188 8.621094 3.617188 12.757812 6.164062 15.304688 C 8.484375 17.625 12.128906 17.828125 14.683594 15.914062 L 15.8125 17.046875 C 15.703125 17.582031 15.855469 18.160156 16.273438 18.578125 L 21.132812 23.4375 C 21.792969 24.097656 22.863281 24.097656 23.523438 23.4375 C 24.183594 22.777344 24.183594 21.707031 23.523438 21.046875 Z M 14.070312 13.984375 C 12.253906 15.800781 9.296875 15.800781 7.480469 13.984375 C 5.664062 12.167969 5.664062 9.210938 7.480469 7.394531 C 9.296875 5.578125 12.253906 5.578125 14.070312 7.394531 C 15.886719 9.210938 15.886719 12.167969 14.070312 13.984375 Z M 14.070312 13.984375 "/>
<path style=" stroke:none;fill-rule:nonzero;fill:#a6a6a6;fill-opacity:1;" d="M 3.675781 12.136719 L 0.101562 15.722656 C -0.0351562 15.859375 -0.0351562 16.078125 0.101562 16.214844 C 0.171875 16.285156 0.261719 16.316406 0.351562 16.316406 C 0.441406 16.316406 0.527344 16.285156 0.597656 16.214844 L 3.949219 12.851562 C 3.851562 12.613281 3.769531 12.367188 3.699219 12.121094 C 3.691406 12.125 3.679688 12.128906 3.675781 12.136719 Z M 3.675781 12.136719 "/>
<path style=" stroke:none;fill-rule:nonzero;fill:#a6a6a6;fill-opacity:1;" d="M 14.878906 2.070312 L 17.691406 1.03125 L 15.65625 5.582031 C 15.832031 5.78125 15.996094 5.984375 16.144531 6.199219 L 18.292969 1.390625 L 19.34375 4.046875 C 19.398438 4.183594 19.53125 4.269531 19.671875 4.269531 C 19.714844 4.269531 19.757812 4.261719 19.800781 4.242188 C 19.976562 4.171875 20.066406 3.96875 19.996094 3.789062 L 18.617188 0.308594 C 18.546875 0.128906 18.347656 0.0429688 18.171875 0.109375 L 14.636719 1.417969 C 14.457031 1.484375 14.363281 1.683594 14.429688 1.867188 C 14.496094 2.046875 14.699219 2.136719 14.878906 2.070312 Z M 14.878906 2.070312 "/>
<path style=" stroke:none;fill-rule:nonzero;fill:#a6a6a6;fill-opacity:1;" d="M 11.011719 7.960938 C 10.929688 7.875 10.808594 7.835938 10.691406 7.859375 C 10.574219 7.878906 10.476562 7.960938 10.433594 8.070312 L 8.136719 13.71875 C 8.332031 13.847656 8.539062 13.957031 8.753906 14.050781 L 10.878906 8.835938 L 13.300781 11.382812 C 13.378906 11.46875 13.496094 11.503906 13.613281 11.488281 C 13.726562 11.464844 13.824219 11.390625 13.871094 11.285156 L 14.578125 9.707031 C 14.535156 9.328125 14.441406 8.960938 14.300781 8.613281 L 13.445312 10.523438 Z M 11.011719 7.960938 "/>
</g>
</svg>
